<?xml version="1.0" encoding="UTF-8" standalone="no"?>
<!DOCTYPE svg PUBLIC "-//W3C//DTD SVG 1.1//EN" "http://www.w3.org/Graphics/SVG/1.1/DTD/svg11.dtd">
<svg width="100%" height="100%" viewBox="0 0 128 128" version="1.1" xmlns="http://www.w3.org/2000/svg" xmlns:xlink="http://www.w3.org/1999/xlink" xml:space="preserve" xmlns:serif="http://www.serif.com/" style="fill-rule:evenodd;clip-rule:evenodd;stroke-linejoin:round;stroke-miterlimit:2;">
    <g transform="matrix(5.07433,0,0,5.07433,-213.428,-138.572)">
        <path d="M64.81,39.921C64.81,38.523 64.548,37.212 64.024,35.989C63.501,34.767 62.774,33.691 61.845,32.761C60.915,31.831 59.837,31.103 58.61,30.575C57.384,30.048 56.071,29.784 54.673,29.784C53.274,29.784 51.962,30.048 50.735,30.575C49.509,31.103 48.433,31.831 47.507,32.761C46.581,33.691 45.854,34.767 45.327,35.989C44.8,37.212 44.536,38.523 44.536,39.921C44.536,41.319 44.8,42.632 45.327,43.859C45.854,45.085 46.581,46.163 47.507,47.093C48.433,48.023 49.509,48.749 50.735,49.273C51.962,49.796 53.274,50.058 54.673,50.058C56.071,50.058 57.384,49.796 58.61,49.273C59.837,48.749 60.915,48.023 61.845,47.093C62.774,46.163 63.501,45.085 64.024,43.859C64.548,42.632 64.81,41.319 64.81,39.921Z" style="fill:rgb(251,238,198);fill-rule:nonzero;"/>
        <path d="M54.696,32.339C54.462,32.339 54.263,32.421 54.099,32.585C53.935,32.749 53.853,32.948 53.853,33.183L53.853,39.933C53.853,40.167 53.935,40.366 54.099,40.53C54.263,40.694 54.462,40.776 54.696,40.776C54.931,40.776 55.13,40.694 55.294,40.53C55.458,40.366 55.54,40.167 55.54,39.933L55.54,33.183C55.54,32.948 55.458,32.749 55.294,32.585C55.13,32.421 54.931,32.339 54.696,32.339Z" style="fill:rgb(146,166,221);fill-rule:nonzero;"/>
        <path d="M48.794,39.921C48.794,40.155 48.875,40.355 49.038,40.518C49.2,40.682 49.398,40.763 49.633,40.763L54.678,40.76C54.912,40.76 55.111,40.678 55.275,40.516C55.438,40.354 55.52,40.156 55.52,39.922C55.52,39.687 55.438,39.486 55.274,39.32C55.11,39.153 54.91,39.069 54.676,39.069L49.631,39.073C49.403,39.069 49.207,39.151 49.042,39.318C48.877,39.485 48.794,39.686 48.794,39.921Z" style="fill:rgb(146,166,221);fill-rule:nonzero;"/>
        <path d="M54.673,49.214C53.392,49.214 52.19,48.974 51.069,48.493C49.948,48.013 48.962,47.347 48.11,46.495C47.259,45.644 46.591,44.655 46.106,43.53C45.622,42.405 45.38,41.202 45.38,39.921C45.38,38.64 45.622,37.437 46.106,36.312C46.591,35.187 47.259,34.198 48.11,33.347C48.962,32.495 49.948,31.829 51.069,31.349C52.19,30.868 53.392,30.628 54.673,30.628C55.954,30.628 57.157,30.868 58.282,31.349C59.407,31.829 60.396,32.495 61.247,33.347C62.099,34.198 62.765,35.187 63.245,36.312C63.726,37.437 63.966,38.64 63.966,39.921C63.966,41.202 63.726,42.405 63.245,43.53C62.765,44.655 62.099,45.644 61.247,46.495C60.396,47.347 59.407,48.013 58.282,48.493C57.157,48.974 55.954,49.214 54.673,49.214ZM54.673,51.745C56.306,51.745 57.837,51.439 59.267,50.825C60.696,50.212 61.952,49.364 63.034,48.282C64.116,47.2 64.964,45.944 65.577,44.515C66.19,43.085 66.497,41.554 66.497,39.921C66.497,38.288 66.19,36.757 65.577,35.327C64.964,33.898 64.116,32.642 63.034,31.56C61.952,30.478 60.696,29.63 59.267,29.017C57.837,28.403 56.306,28.097 54.673,28.097C53.04,28.097 51.509,28.403 50.079,29.017C48.649,29.63 47.394,30.478 46.312,31.56C45.229,32.642 44.382,33.898 43.769,35.327C43.155,36.757 42.849,38.288 42.849,39.921C42.849,41.554 43.155,43.085 43.769,44.515C44.382,45.944 45.229,47.2 46.312,48.282C47.394,49.364 48.649,50.212 50.079,50.825C51.509,51.439 53.04,51.745 54.673,51.745Z" style="fill:rgb(59,93,186);fill-rule:nonzero;"/>
        <path d="M56.379,39.935C56.379,39.703 56.336,39.486 56.249,39.283C56.162,39.081 56.042,38.902 55.887,38.748C55.733,38.594 55.555,38.473 55.351,38.386C55.148,38.298 54.93,38.255 54.699,38.255C54.467,38.255 54.249,38.298 54.046,38.386C53.843,38.473 53.664,38.594 53.511,38.748C53.357,38.902 53.237,39.081 53.149,39.283C53.062,39.486 53.018,39.703 53.018,39.935C53.018,40.167 53.062,40.384 53.149,40.588C53.237,40.791 53.357,40.97 53.511,41.124C53.664,41.278 53.843,41.398 54.046,41.485C54.249,41.572 54.467,41.615 54.699,41.615C54.93,41.615 55.148,41.572 55.351,41.485C55.555,41.398 55.733,41.278 55.887,41.124C56.042,40.97 56.162,40.791 56.249,40.588C56.336,40.384 56.379,40.167 56.379,39.935Z" style="fill:rgb(59,93,186);fill-rule:nonzero;"/>
    </g>
</svg>
