<?xml version="1.0" encoding="UTF-8" standalone="no"?>
<!DOCTYPE svg PUBLIC "-//W3C//DTD SVG 1.1//EN" "http://www.w3.org/Graphics/SVG/1.1/DTD/svg11.dtd">
<svg width="100%" height="100%" viewBox="0 0 128 128" version="1.1" xmlns="http://www.w3.org/2000/svg" xmlns:xlink="http://www.w3.org/1999/xlink" xml:space="preserve" xmlns:serif="http://www.serif.com/" style="fill-rule:evenodd;clip-rule:evenodd;stroke-linejoin:round;stroke-miterlimit:2;">
    <g transform="matrix(5.07433,0,0,5.07433,-147.098,-149.771)">
        <path d="M29.777,42.128C29.777,43.761 30.084,45.29 30.697,46.716C31.31,48.142 32.16,49.397 33.246,50.483C34.332,51.569 35.59,52.419 37.019,53.032C38.449,53.646 39.976,53.952 41.601,53.952C43.234,53.952 44.765,53.646 46.195,53.032C47.625,52.419 48.881,51.569 49.963,50.483C51.045,49.397 51.892,48.142 52.506,46.716C53.119,45.29 53.425,43.761 53.425,42.128C53.425,40.495 53.119,38.966 52.506,37.54C51.892,36.114 51.045,34.858 49.963,33.772C48.881,32.687 47.625,31.837 46.195,31.224C44.765,30.61 43.234,30.304 41.601,30.304C39.976,30.304 38.449,30.61 37.019,31.224C35.59,31.837 34.332,32.687 33.246,33.772C32.16,34.858 31.31,36.114 30.697,37.54C30.084,38.966 29.777,40.495 29.777,42.128ZM31.5,41.284C31.562,40.519 31.709,39.78 31.939,39.069C32.17,38.358 32.465,37.69 32.824,37.065L35.824,37.065C35.277,38.417 34.961,39.823 34.875,41.284L31.5,41.284ZM36.562,41.284C36.672,39.808 37.043,38.401 37.675,37.065L40.757,37.065L40.757,41.284L36.562,41.284ZM40.757,42.972L40.757,47.19L37.675,47.19C37.043,45.854 36.672,44.448 36.562,42.972L40.757,42.972ZM40.757,48.89L40.757,51.187C39.953,50.507 39.25,49.741 38.648,48.89L40.757,48.89ZM44.144,51.937C45.097,51.038 45.902,50.022 46.558,48.89L49.148,48.89C48.492,49.616 47.738,50.243 46.886,50.771C46.035,51.298 45.121,51.687 44.144,51.937ZM47.379,47.19C47.925,45.839 48.246,44.433 48.34,42.972L51.703,42.972C51.64,43.737 51.496,44.476 51.269,45.187C51.043,45.897 50.746,46.569 50.379,47.202L50.379,47.19L47.379,47.19ZM46.64,42.972C46.539,44.456 46.172,45.862 45.539,47.19L42.445,47.19L42.445,42.972L46.64,42.972ZM48.34,41.284C48.246,39.823 47.925,38.417 47.379,37.065L50.379,37.065L50.379,37.054C50.746,37.687 51.043,38.358 51.269,39.069C51.496,39.78 51.64,40.519 51.703,41.284L48.34,41.284ZM45.539,37.065C46.172,38.394 46.539,39.8 46.64,41.284L42.445,41.284L42.445,37.065L45.539,37.065ZM46.558,35.366C45.902,34.233 45.097,33.218 44.144,32.319C45.129,32.569 46.045,32.958 46.892,33.485C47.74,34.013 48.492,34.64 49.148,35.366L46.558,35.366ZM42.445,33.069C43.25,33.741 43.953,34.507 44.554,35.366L42.445,35.366L42.445,33.069ZM40.757,33.069L40.757,35.366L38.648,35.366C39.25,34.507 39.953,33.741 40.757,33.069ZM42.445,48.89L44.554,48.89C43.961,49.741 43.257,50.507 42.445,51.187L42.445,48.89ZM32.824,47.19C32.465,46.565 32.17,45.897 31.939,45.187C31.709,44.476 31.562,43.737 31.5,42.972L34.875,42.972C34.961,44.433 35.277,45.839 35.824,47.19L32.824,47.19ZM39.07,51.948C38.086,51.69 37.168,51.3 36.316,50.776C35.465,50.253 34.711,49.624 34.054,48.89L36.656,48.89C37.312,50.022 38.117,51.042 39.07,51.948ZM36.644,35.366L34.054,35.366C34.711,34.64 35.465,34.013 36.316,33.485C37.168,32.958 38.082,32.569 39.058,32.319C38.105,33.218 37.3,34.233 36.644,35.366Z" style="fill:rgb(59,93,186);fill-rule:nonzero;"/>
    </g>
</svg>
