<?xml version="1.0" encoding="UTF-8" standalone="no"?>
<!DOCTYPE svg PUBLIC "-//W3C//DTD SVG 1.1//EN" "http://www.w3.org/Graphics/SVG/1.1/DTD/svg11.dtd">
<svg width="100%" height="100%" viewBox="0 0 128 128" version="1.1" xmlns="http://www.w3.org/2000/svg" xmlns:xlink="http://www.w3.org/1999/xlink" xml:space="preserve" xmlns:serif="http://www.serif.com/" style="fill-rule:evenodd;clip-rule:evenodd;stroke-linejoin:round;stroke-miterlimit:2;">
    <g transform="matrix(4.73636,0,0,4.73636,-231.936,-206.176)">
        <path d="M75.068,56.053C75.091,56.288 75.111,56.526 75.126,56.768C75.142,57.01 75.15,57.253 75.15,57.495L75.15,59.428C75.15,59.999 75.068,60.561 74.904,61.116C74.662,61.936 74.265,62.663 73.714,63.296C73.164,63.928 72.503,64.428 71.734,64.796C70.964,65.163 70.134,65.346 69.244,65.346L60.372,65.346C59.568,65.346 58.828,65.159 58.152,64.784C57.476,64.409 56.925,63.901 56.499,63.26C56.074,62.62 55.822,61.905 55.744,61.116L53.986,61.116C53.22,61.116 52.521,60.928 51.888,60.553C51.255,60.178 50.751,59.674 50.376,59.042C50.001,58.409 49.814,57.71 49.814,56.944C49.814,55.303 50.121,53.766 50.734,52.333C51.347,50.899 52.199,49.637 53.289,48.548C54.378,47.458 55.64,46.606 57.074,45.993C58.507,45.38 60.044,45.073 61.685,45.073L62.728,45.073C64.322,45.073 65.824,45.352 67.234,45.911C68.644,46.469 69.904,47.247 71.013,48.243C72.122,49.239 73.031,50.403 73.738,51.735C74.445,53.067 74.888,54.507 75.068,56.053Z" style="fill:rgb(146,166,221);fill-rule:nonzero;"/>
        <path d="M70.087,65.323L65.529,65.346L69.009,68.815C69.205,69.018 69.433,69.065 69.695,68.956C69.956,68.846 70.087,68.651 70.087,68.37L70.087,65.323Z" style="fill:rgb(59,93,186);fill-rule:nonzero;"/>
        <path d="M57.572,49.749L57.525,49.76C56.048,50.221 54.79,50.999 53.751,52.092C53.244,52.639 52.806,53.245 52.439,53.909C52.072,54.573 51.775,55.288 51.548,56.053C51.501,55.257 51.621,54.464 51.906,53.674C52.191,52.885 52.607,52.178 53.154,51.553C53.669,50.944 54.285,50.438 54.999,50.036C55.714,49.633 56.462,49.37 57.244,49.245C57.33,48.924 57.421,48.602 57.519,48.278C57.617,47.954 57.724,47.635 57.841,47.323C57.841,47.69 57.831,48.059 57.812,48.43C57.792,48.801 57.767,49.171 57.736,49.538C57.728,49.647 57.673,49.717 57.572,49.749ZM65.599,47.745C65.122,47.51 64.665,47.335 64.228,47.217C63.79,47.1 63.349,47.046 62.904,47.053C62.458,47.046 62.017,47.1 61.58,47.217C61.142,47.335 60.689,47.51 60.22,47.745C60.447,47.276 60.814,46.897 61.322,46.608C61.783,46.35 62.31,46.217 62.904,46.21C63.497,46.217 64.025,46.35 64.486,46.608C65.001,46.897 65.372,47.276 65.599,47.745ZM58.31,56.135C59.029,55.909 59.716,55.882 60.372,56.053C59.716,56.225 59.113,56.456 58.562,56.745C58.011,57.034 57.521,57.397 57.091,57.835C56.654,58.264 56.289,58.755 55.996,59.305C55.703,59.856 55.474,60.46 55.31,61.116C55.13,60.46 55.154,59.772 55.38,59.053C55.591,58.382 55.962,57.776 56.494,57.237C56.587,57.151 56.683,57.067 56.781,56.985C56.878,56.903 56.982,56.823 57.091,56.745C56.865,56.385 56.626,56.081 56.376,55.831C56.017,55.464 55.521,55.116 54.888,54.788C55.224,54.616 55.587,54.579 55.978,54.676C56.369,54.774 56.701,54.96 56.974,55.233C57.263,55.53 57.447,55.862 57.525,56.229C57.54,56.284 57.552,56.358 57.56,56.452C57.826,56.311 58.076,56.206 58.31,56.135ZM68.435,59.885C68.818,59.823 69.167,59.635 69.484,59.323C69.8,59.01 70.001,58.624 70.087,58.163C70.189,58.632 70.097,59.102 69.812,59.575C69.527,60.048 69.122,60.362 68.599,60.518C68.482,60.565 68.353,60.598 68.212,60.618C68.072,60.637 67.947,60.647 67.837,60.647L67.287,60.671C67.513,60.921 67.65,61.182 67.697,61.456C67.767,61.807 67.72,62.116 67.556,62.382C67.236,61.882 66.927,61.487 66.63,61.198C66.466,61.026 66.275,60.858 66.056,60.694L65.751,60.694C64.83,60.694 63.908,60.667 62.986,60.612C62.064,60.557 61.142,60.444 60.22,60.272C60.603,60.202 60.984,60.145 61.363,60.102C61.742,60.059 62.119,60.022 62.494,59.991C62.79,59.78 63.044,59.569 63.255,59.358C63.552,59.069 63.857,58.671 64.169,58.163C64.341,58.436 64.394,58.735 64.328,59.059C64.261,59.383 64.119,59.663 63.9,59.897C64.212,59.889 64.523,59.882 64.831,59.874C65.14,59.866 65.447,59.858 65.751,59.85L67.134,59.874C67.369,59.882 67.599,59.893 67.826,59.909C68.052,59.924 68.255,59.917 68.435,59.885ZM73.767,57.624C74.025,58.397 74.064,59.139 73.884,59.85C73.712,59.139 73.47,58.483 73.158,57.882C72.845,57.28 72.455,56.741 71.986,56.264C71.58,55.858 71.122,55.512 70.615,55.227C70.107,54.942 69.556,54.71 68.962,54.53C68.712,54.749 68.443,54.944 68.154,55.116C67.865,55.288 67.56,55.421 67.24,55.514C66.474,55.764 65.732,55.803 65.013,55.632C65.732,55.46 66.392,55.217 66.994,54.905C67.595,54.592 68.13,54.198 68.599,53.721C69.076,53.253 69.47,52.717 69.783,52.116C70.095,51.514 70.337,50.854 70.509,50.135C70.681,50.854 70.642,51.596 70.392,52.362C70.173,53.057 69.79,53.694 69.244,54.272C69.72,54.264 70.181,54.335 70.626,54.483C71.345,54.702 71.994,55.1 72.572,55.678C73.15,56.257 73.548,56.905 73.767,57.624Z" style="fill:rgb(59,93,186);fill-rule:nonzero;"/>
    </g>
</svg>
