<?xml version="1.0" encoding="UTF-8" standalone="no"?>
<!DOCTYPE svg PUBLIC "-//W3C//DTD SVG 1.1//EN" "http://www.w3.org/Graphics/SVG/1.1/DTD/svg11.dtd">
<svg width="100%" height="100%" viewBox="0 0 128 128" version="1.1" xmlns="http://www.w3.org/2000/svg" xmlns:xlink="http://www.w3.org/1999/xlink" xml:space="preserve" xmlns:serif="http://www.serif.com/" style="fill-rule:evenodd;clip-rule:evenodd;stroke-linejoin:round;stroke-miterlimit:2;">
    <g transform="matrix(5.07338,0,0,5.07338,-223.744,-154.009)">
        <path d="M61.772,33.562C62.874,34.124 63.87,34.794 64.761,35.571C65.651,36.349 66.399,37.187 67.005,38.085C67.61,38.983 68.042,39.892 68.3,40.81C68.558,41.728 68.61,42.614 68.458,43.47C68.306,44.325 67.913,45.101 67.28,45.796C66.726,46.405 66.124,46.825 65.476,47.056C64.827,47.286 64.177,47.415 63.524,47.442C62.872,47.47 62.257,47.472 61.679,47.448C61.101,47.425 60.599,47.46 60.173,47.554C59.747,47.647 59.437,47.882 59.241,48.257C59.124,48.491 59.108,48.735 59.194,48.989C59.28,49.243 59.403,49.511 59.563,49.792C59.724,50.073 59.86,50.374 59.974,50.694C60.087,51.015 60.118,51.356 60.067,51.72C60.017,52.083 59.819,52.479 59.476,52.909C59.03,53.448 58.452,53.774 57.741,53.888C57.03,54.001 56.259,53.968 55.427,53.788C54.595,53.608 53.765,53.341 52.937,52.985C52.108,52.63 51.358,52.253 50.687,51.854C49.319,51.042 48.183,50.046 47.276,48.866C46.37,47.687 45.718,46.407 45.319,45.028C44.921,43.649 44.8,42.255 44.956,40.845C45.112,39.435 45.573,38.101 46.339,36.843C47.105,35.577 48.069,34.56 49.233,33.79C50.397,33.021 51.679,32.497 53.077,32.22C54.476,31.942 55.921,31.915 57.413,32.138C58.905,32.36 60.358,32.835 61.772,33.562ZM63.472,44.659C64.206,44.659 64.812,44.419 65.288,43.938C65.765,43.458 66.003,42.854 66.003,42.128C66.003,41.401 65.765,40.798 65.288,40.317C64.812,39.837 64.206,39.597 63.472,39.597C62.73,39.597 62.122,39.837 61.649,40.317C61.177,40.798 60.94,41.401 60.94,42.128C60.94,42.854 61.177,43.458 61.649,43.938C62.122,44.419 62.73,44.659 63.472,44.659Z" style="fill:rgb(59,93,186);fill-rule:nonzero;"/>
        <path d="M55.236,37.905C54.975,37.905 54.729,37.856 54.5,37.758C54.27,37.66 54.068,37.524 53.894,37.35C53.72,37.176 53.584,36.974 53.485,36.745C53.386,36.515 53.336,36.269 53.336,36.006C53.336,35.745 53.386,35.499 53.485,35.27C53.584,35.04 53.72,34.838 53.894,34.663C54.068,34.488 54.27,34.351 54.5,34.253C54.729,34.155 54.975,34.106 55.236,34.106C55.499,34.106 55.745,34.155 55.975,34.253C56.204,34.351 56.406,34.488 56.58,34.663C56.754,34.838 56.891,35.04 56.99,35.27C57.089,35.499 57.138,35.745 57.138,36.006C57.138,36.269 57.089,36.515 56.99,36.745C56.891,36.974 56.754,37.176 56.58,37.35C56.406,37.524 56.204,37.66 55.975,37.758C55.745,37.856 55.499,37.905 55.236,37.905Z" style="fill:rgb(220,147,147);fill-rule:nonzero;"/>
        <path d="M50.162,41.28C49.9,41.28 49.655,41.231 49.425,41.133C49.196,41.035 48.994,40.899 48.82,40.725C48.646,40.551 48.51,40.349 48.411,40.12C48.312,39.89 48.262,39.644 48.262,39.381C48.262,39.12 48.312,38.874 48.411,38.645C48.51,38.415 48.646,38.213 48.82,38.038C48.994,37.863 49.196,37.726 49.425,37.628C49.655,37.53 49.9,37.481 50.162,37.481C50.425,37.481 50.671,37.53 50.901,37.628C51.13,37.726 51.332,37.863 51.506,38.038C51.68,38.213 51.817,38.415 51.916,38.645C52.015,38.874 52.064,39.12 52.064,39.381C52.064,39.644 52.015,39.89 51.916,40.12C51.817,40.349 51.68,40.551 51.506,40.725C51.332,40.899 51.13,41.035 50.901,41.133C50.671,41.231 50.425,41.28 50.162,41.28Z" style="fill:rgb(154,220,147);fill-rule:nonzero;"/>
        <path d="M50.162,47.198C49.9,47.198 49.655,47.149 49.425,47.051C49.196,46.953 48.994,46.817 48.82,46.643C48.646,46.469 48.51,46.267 48.411,46.038C48.312,45.808 48.262,45.562 48.262,45.299C48.262,45.038 48.312,44.792 48.411,44.563C48.51,44.333 48.646,44.131 48.82,43.956C48.994,43.781 49.196,43.644 49.425,43.546C49.655,43.448 49.9,43.399 50.162,43.399C50.425,43.399 50.671,43.448 50.901,43.546C51.13,43.644 51.332,43.781 51.506,43.956C51.68,44.131 51.817,44.333 51.916,44.563C52.015,44.792 52.064,45.038 52.064,45.299C52.064,45.562 52.015,45.808 51.916,46.038C51.817,46.267 51.68,46.469 51.506,46.643C51.332,46.817 51.13,46.953 50.901,47.051C50.671,47.149 50.425,47.198 50.162,47.198Z" style="fill:rgb(251,238,198);fill-rule:nonzero;"/>
        <path d="M54.814,50.995C54.553,50.995 54.307,50.946 54.078,50.848C53.848,50.75 53.647,50.614 53.472,50.44C53.298,50.266 53.162,50.064 53.063,49.835C52.964,49.605 52.914,49.359 52.914,49.096C52.914,48.835 52.964,48.589 53.063,48.36C53.162,48.13 53.298,47.928 53.472,47.753C53.647,47.577 53.848,47.441 54.078,47.343C54.307,47.245 54.553,47.196 54.814,47.196C55.077,47.196 55.323,47.245 55.553,47.343C55.783,47.441 55.984,47.577 56.158,47.753C56.333,47.928 56.469,48.13 56.568,48.36C56.667,48.589 56.717,48.835 56.717,49.096C56.717,49.359 56.667,49.605 56.568,49.835C56.469,50.064 56.333,50.266 56.158,50.44C55.984,50.614 55.783,50.75 55.553,50.848C55.323,50.946 55.077,50.995 54.814,50.995Z" style="fill:rgb(146,166,221);fill-rule:nonzero;"/>
    </g>
</svg>
