<?xml version="1.0" encoding="UTF-8" standalone="no"?>
<!DOCTYPE svg PUBLIC "-//W3C//DTD SVG 1.1//EN" "http://www.w3.org/Graphics/SVG/1.1/DTD/svg11.dtd">
<svg width="100%" height="100%" viewBox="0 0 128 128" version="1.1" xmlns="http://www.w3.org/2000/svg" xmlns:xlink="http://www.w3.org/1999/xlink" xml:space="preserve" xmlns:serif="http://www.serif.com/" style="fill-rule:evenodd;clip-rule:evenodd;stroke-linejoin:round;stroke-miterlimit:2;">
    <g transform="matrix(5.07433,0,0,5.07433,-287.511,-236.775)">
        <path d="M81.097,52.407C81.097,51.594 80.811,50.899 80.241,50.321L78.214,48.305C77.636,47.735 76.94,47.45 76.128,47.45L60.706,47.45C60.104,47.45 59.557,47.596 59.065,47.889C58.573,48.182 58.181,48.575 57.888,49.067C57.595,49.559 57.448,50.102 57.448,50.696L57.448,67.852C57.448,68.446 57.595,68.989 57.888,69.481C58.181,69.973 58.573,70.366 59.065,70.659C59.557,70.952 60.104,71.098 60.706,71.098L77.85,71.098C78.444,71.098 78.987,70.952 79.479,70.659C79.972,70.366 80.364,69.973 80.657,69.481C80.95,68.989 81.097,68.446 81.097,67.852L81.097,52.407Z" style="fill:rgb(59,93,186);fill-rule:nonzero;"/>
        <rect x="60.823" y="60.961" width="16.898" height="10.137" style="fill:rgb(146,166,221);fill-rule:nonzero;"/>
        <path d="M60.823,60.539L60.823,61.805L77.722,61.805L77.722,60.539C77.722,60.188 77.598,59.889 77.352,59.643C77.106,59.397 76.807,59.274 76.456,59.274L62.1,59.274C61.749,59.274 61.448,59.397 61.198,59.643C60.948,59.889 60.823,60.188 60.823,60.539Z" style="fill:rgb(251,238,198);fill-rule:nonzero;"/>
        <path d="M76.128,47.45L60.823,47.45L60.823,55.266C60.823,55.672 60.968,56.02 61.257,56.309C61.546,56.598 61.897,56.743 62.311,56.743L76.245,56.743C76.651,56.743 76.999,56.598 77.288,56.309C77.577,56.02 77.722,55.672 77.722,55.266L77.722,47.918C77.237,47.606 76.706,47.45 76.128,47.45Z" style="fill:rgb(146,166,221);fill-rule:nonzero;"/>
        <path d="M74.886,55.899C75.198,55.899 75.468,55.786 75.694,55.559C75.921,55.332 76.034,55.063 76.034,54.75L76.034,47.45L66.12,47.45C65.831,47.45 65.581,47.555 65.37,47.766C65.159,47.977 65.054,48.227 65.054,48.516L65.054,54.75C65.054,55.063 65.165,55.332 65.388,55.559C65.61,55.786 65.882,55.899 66.202,55.899L74.886,55.899Z" style="fill:rgb(251,238,198);fill-rule:nonzero;"/>
        <path d="M74.37,55.055C74.597,55.055 74.79,54.973 74.95,54.809C75.11,54.645 75.19,54.453 75.19,54.235L75.19,49.125C75.19,48.899 75.11,48.703 74.95,48.539C74.79,48.375 74.597,48.293 74.37,48.293L72.624,48.293C72.397,48.293 72.204,48.375 72.044,48.539C71.884,48.703 71.804,48.899 71.804,49.125L71.804,54.223C71.804,54.45 71.884,54.645 72.044,54.809C72.204,54.973 72.397,55.055 72.624,55.055L74.37,55.055Z" style="fill:rgb(146,166,221);fill-rule:nonzero;"/>
    </g>
</svg>
