<?xml version="1.0" encoding="UTF-8" standalone="no"?>
<!DOCTYPE svg PUBLIC "-//W3C//DTD SVG 1.1//EN" "http://www.w3.org/Graphics/SVG/1.1/DTD/svg11.dtd">
<svg width="100%" height="100%" viewBox="0 0 128 128" version="1.1" xmlns="http://www.w3.org/2000/svg" xmlns:xlink="http://www.w3.org/1999/xlink" xml:space="preserve" xmlns:serif="http://www.serif.com/" style="fill-rule:evenodd;clip-rule:evenodd;stroke-linejoin:round;stroke-miterlimit:2;">
    <g transform="matrix(5.07433,0,0,5.07433,-169.495,-153.217)">
        <path d="M34.191,34.358L34.191,51.256C34.191,51.873 34.343,52.438 34.648,52.95C34.953,53.461 35.361,53.869 35.872,54.174C36.384,54.479 36.949,54.631 37.566,54.631L54.464,54.631C55.089,54.631 55.656,54.479 56.163,54.174C56.671,53.869 57.078,53.461 57.382,52.95C57.687,52.438 57.839,51.873 57.839,51.256L57.839,34.358C57.839,33.741 57.687,33.176 57.382,32.664C57.078,32.153 56.671,31.744 56.163,31.44C55.656,31.135 55.089,30.983 54.464,30.983L37.566,30.983C36.949,30.983 36.384,31.135 35.872,31.44C35.361,31.744 34.953,32.153 34.648,32.664C34.343,33.176 34.191,33.741 34.191,34.358Z" style="fill:rgb(59,93,186);fill-rule:nonzero;"/>
        <path d="M43.296,46.123L43.296,37.803C43.296,37.616 43.365,37.453 43.501,37.317C43.638,37.18 43.8,37.112 43.988,37.112C44.183,37.112 44.347,37.18 44.48,37.317C44.613,37.453 44.679,37.616 44.679,37.803L44.679,40.639C45.109,40.389 45.574,40.264 46.074,40.264C46.581,40.264 47.044,40.389 47.462,40.639C47.88,40.889 48.214,41.223 48.464,41.641C48.714,42.059 48.839,42.522 48.839,43.03L48.839,44.037C48.839,44.545 48.714,45.01 48.464,45.432C48.214,45.854 47.88,46.19 47.462,46.44C47.044,46.69 46.581,46.815 46.074,46.815C45.55,46.815 45.066,46.678 44.62,46.405C44.495,46.678 44.285,46.815 43.988,46.815C43.8,46.815 43.638,46.746 43.501,46.61C43.365,46.473 43.296,46.311 43.296,46.123ZM44.679,43.03L44.679,44.037C44.679,44.42 44.816,44.746 45.089,45.016C45.363,45.285 45.691,45.42 46.074,45.42C46.449,45.42 46.773,45.285 47.046,45.016C47.32,44.746 47.456,44.42 47.456,44.037L47.456,43.03C47.456,42.655 47.32,42.33 47.046,42.057C46.773,41.784 46.449,41.647 46.074,41.647C45.691,41.647 45.363,41.784 45.089,42.057C44.816,42.33 44.679,42.655 44.679,43.03Z" style="fill:rgb(146,166,221);fill-rule:nonzero;"/>
        <path d="M52.343,46.815C52.929,46.815 53.462,46.645 53.943,46.305C54.423,45.965 54.761,45.518 54.956,44.963C55.027,44.784 55.021,44.606 54.939,44.43C54.857,44.254 54.722,44.135 54.535,44.073C54.355,44.01 54.179,44.02 54.007,44.102C53.835,44.184 53.718,44.315 53.656,44.494C53.554,44.776 53.382,45 53.14,45.168C52.898,45.336 52.632,45.42 52.343,45.42C51.96,45.42 51.634,45.285 51.365,45.016C51.095,44.746 50.96,44.42 50.96,44.037L50.96,43.03C50.96,42.655 51.095,42.33 51.365,42.057C51.634,41.784 51.96,41.647 52.343,41.647C52.64,41.647 52.908,41.733 53.146,41.905C53.384,42.076 53.554,42.303 53.656,42.584C53.718,42.764 53.835,42.895 54.007,42.977C54.179,43.059 54.355,43.069 54.535,43.006C54.722,42.936 54.857,42.815 54.939,42.643C55.021,42.471 55.027,42.295 54.956,42.116C54.761,41.561 54.423,41.114 53.943,40.774C53.462,40.434 52.929,40.264 52.343,40.264C51.835,40.264 51.37,40.389 50.949,40.639C50.527,40.889 50.193,41.223 49.947,41.641C49.701,42.059 49.578,42.522 49.578,43.03L49.578,44.037C49.578,44.545 49.701,45.01 49.947,45.432C50.193,45.854 50.527,46.19 50.949,46.44C51.37,46.69 51.835,46.815 52.343,46.815Z" style="fill:rgb(146,166,221);fill-rule:nonzero;"/>
        <path d="M40.953,46.323C40.476,46.651 39.953,46.815 39.382,46.815L38.96,46.815C38.437,46.815 37.988,46.627 37.613,46.252C37.238,45.877 37.05,45.424 37.05,44.893C37.05,44.362 37.238,43.909 37.613,43.534C37.988,43.159 38.437,42.971 38.96,42.971L40.917,42.971L40.917,42.772C40.917,42.459 40.806,42.194 40.583,41.975C40.361,41.756 40.097,41.647 39.792,41.647L38.14,41.647C37.953,41.647 37.79,41.578 37.654,41.442C37.517,41.305 37.449,41.143 37.449,40.955C37.449,40.768 37.517,40.606 37.654,40.469C37.79,40.332 37.953,40.264 38.14,40.264L39.792,40.264C40.488,40.264 41.079,40.508 41.568,40.996C42.056,41.485 42.3,42.076 42.3,42.772L42.3,46.123C42.3,46.311 42.232,46.473 42.095,46.61C41.958,46.746 41.796,46.815 41.609,46.815C41.273,46.815 41.054,46.651 40.953,46.323ZM38.304,44.893C38.304,45.073 38.369,45.227 38.497,45.356C38.626,45.485 38.781,45.549 38.96,45.549L39.382,45.549C39.765,45.549 40.099,45.422 40.384,45.168C40.669,44.914 40.835,44.604 40.882,44.237L38.96,44.237C38.781,44.237 38.626,44.301 38.497,44.43C38.369,44.559 38.304,44.713 38.304,44.893Z" style="fill:rgb(146,166,221);fill-rule:nonzero;"/>
    </g>
</svg>
