<?xml version="1.0" encoding="UTF-8" standalone="no"?>
<!DOCTYPE svg PUBLIC "-//W3C//DTD SVG 1.1//EN" "http://www.w3.org/Graphics/SVG/1.1/DTD/svg11.dtd">
<svg width="100%" height="100%" viewBox="0 0 128 128" version="1.1" xmlns="http://www.w3.org/2000/svg" xmlns:xlink="http://www.w3.org/1999/xlink" xml:space="preserve" xmlns:serif="http://www.serif.com/" style="fill-rule:evenodd;clip-rule:evenodd;stroke-linejoin:round;stroke-miterlimit:2;">
    <g transform="matrix(5.07433,0,0,5.07433,-325.413,-123.067)">
        <path d="M74.082,26.588C74.121,26.15 74.3,25.783 74.621,25.486C74.941,25.19 75.324,25.041 75.769,25.041L77.726,25.041C78.164,25.041 78.545,25.19 78.869,25.486C79.193,25.783 79.371,26.15 79.402,26.588L79.601,28.979C79.617,29.15 79.705,29.268 79.865,29.33C80.025,29.393 80.172,29.369 80.304,29.26L82.132,27.713C82.461,27.432 82.845,27.301 83.287,27.32C83.728,27.34 84.105,27.502 84.418,27.807L85.8,29.201C86.113,29.506 86.277,29.879 86.293,30.32C86.308,30.762 86.175,31.15 85.894,31.486L84.347,33.315C84.238,33.44 84.216,33.582 84.283,33.742C84.349,33.902 84.464,33.99 84.629,34.006L87.019,34.205C87.457,34.236 87.824,34.414 88.121,34.738C88.418,35.063 88.566,35.443 88.566,35.881L88.566,37.85C88.566,38.287 88.418,38.668 88.121,38.992C87.824,39.316 87.457,39.494 87.019,39.525L84.629,39.725C84.464,39.74 84.349,39.828 84.283,39.988C84.216,40.149 84.238,40.291 84.347,40.416L85.894,42.244C86.175,42.58 86.308,42.969 86.293,43.41C86.277,43.852 86.113,44.225 85.8,44.529L84.418,45.924C84.105,46.229 83.728,46.391 83.287,46.41C82.845,46.43 82.461,46.299 82.132,46.018L80.304,44.471C80.172,44.361 80.025,44.338 79.865,44.4C79.705,44.463 79.617,44.58 79.601,44.752L79.402,47.143C79.371,47.58 79.193,47.947 78.869,48.244C78.545,48.541 78.164,48.69 77.726,48.69L75.769,48.69C75.324,48.69 74.941,48.541 74.621,48.244C74.3,47.947 74.121,47.58 74.082,47.143L73.882,44.752C73.867,44.58 73.781,44.463 73.625,44.4C73.468,44.338 73.324,44.361 73.191,44.471L71.363,46.018C71.027,46.299 70.64,46.43 70.203,46.41C69.765,46.391 69.39,46.229 69.078,45.924L67.695,44.529C67.382,44.225 67.216,43.852 67.197,43.41C67.177,42.969 67.308,42.58 67.589,42.244L69.136,40.416C69.254,40.291 69.279,40.149 69.213,39.988C69.146,39.828 69.027,39.74 68.855,39.725L66.464,39.525C66.027,39.494 65.66,39.316 65.363,38.992C65.066,38.668 64.918,38.287 64.918,37.85L64.918,35.881C64.918,35.443 65.066,35.063 65.363,34.738C65.66,34.414 66.027,34.236 66.464,34.205L68.855,34.006C69.027,33.99 69.146,33.902 69.213,33.742C69.279,33.582 69.254,33.44 69.136,33.315L67.589,31.486C67.308,31.15 67.177,30.762 67.197,30.32C67.216,29.879 67.382,29.506 67.695,29.201L69.078,27.807C69.39,27.502 69.765,27.34 70.203,27.32C70.64,27.301 71.027,27.432 71.363,27.713L73.191,29.26C73.324,29.369 73.468,29.393 73.625,29.33C73.781,29.268 73.867,29.15 73.882,28.979L74.082,26.588ZM80.55,36.865C80.55,36.162 80.379,35.524 80.035,34.949C79.691,34.375 79.232,33.918 78.658,33.578C78.084,33.238 77.445,33.068 76.742,33.068C76.047,33.068 75.41,33.238 74.832,33.578C74.254,33.918 73.795,34.375 73.455,34.949C73.115,35.524 72.945,36.162 72.945,36.865C72.945,37.568 73.115,38.207 73.455,38.781C73.795,39.356 74.254,39.813 74.832,40.152C75.41,40.492 76.047,40.662 76.742,40.662C77.445,40.662 78.084,40.492 78.658,40.152C79.232,39.813 79.691,39.356 80.035,38.781C80.379,38.207 80.55,37.568 80.55,36.865Z" style="fill:rgb(59,93,186);"/>
    </g>
</svg>
