<?xml version="1.0" encoding="UTF-8" standalone="no"?>
<!DOCTYPE svg PUBLIC "-//W3C//DTD SVG 1.1//EN" "http://www.w3.org/Graphics/SVG/1.1/DTD/svg11.dtd">
<svg width="100%" height="100%" viewBox="0 0 128 128" version="1.1" xmlns="http://www.w3.org/2000/svg" xmlns:xlink="http://www.w3.org/1999/xlink" xml:space="preserve" xmlns:serif="http://www.serif.com/" style="fill-rule:evenodd;clip-rule:evenodd;stroke-linejoin:round;stroke-miterlimit:2;">
    <g transform="matrix(5.07433,0,0,5.07433,-158.297,-143.741)">
        <path d="M32.828,33.334C32.593,33.334 32.394,33.418 32.23,33.586C32.066,33.754 31.984,33.951 31.984,34.178L31.984,47.701C31.984,47.928 32.066,48.125 32.23,48.293C32.394,48.461 32.593,48.545 32.828,48.545L54.789,48.545C55.023,48.545 55.222,48.461 55.386,48.293C55.55,48.125 55.632,47.928 55.632,47.701L55.632,34.178C55.632,33.951 55.55,33.754 55.386,33.586C55.222,33.418 55.023,33.334 54.789,33.334L32.828,33.334Z" style="fill:rgb(59,93,186);fill-rule:nonzero;"/>
        <path d="M55.632,47.186L55.632,48.545C55.632,48.779 55.55,48.979 55.386,49.143C55.222,49.307 55.023,49.389 54.789,49.389L32.828,49.389C32.593,49.389 32.394,49.307 32.23,49.143C32.066,48.979 31.984,48.779 31.984,48.545L31.984,47.186L42.941,40.611C43.519,40.268 44.097,40.268 44.675,40.611L55.632,47.186Z" style="fill:rgb(59,93,186);fill-rule:nonzero;"/>
        <path d="M31.984,35.678L42.507,41.983C42.906,42.225 43.339,42.346 43.808,42.346C44.277,42.346 44.71,42.225 45.109,41.983L55.632,35.678L55.632,34.178L31.984,34.178L31.984,35.678Z" style="fill:rgb(251,238,198);fill-rule:nonzero;"/>
        <path d="M31.984,34.693L42.941,41.268C43.519,41.611 44.097,41.611 44.675,41.268L55.632,34.693L55.632,33.334C55.632,33.1 55.55,32.901 55.386,32.736C55.222,32.572 55.023,32.49 54.789,32.49L32.828,32.49C32.593,32.49 32.394,32.572 32.23,32.736C32.066,32.901 31.984,33.1 31.984,33.334L31.984,34.693Z" style="fill:rgb(146,166,221);fill-rule:nonzero;"/>
    </g>
</svg>
