<?xml version="1.0" encoding="UTF-8" standalone="no"?>
<!DOCTYPE svg PUBLIC "-//W3C//DTD SVG 1.1//EN" "http://www.w3.org/Graphics/SVG/1.1/DTD/svg11.dtd">
<svg width="100%" height="100%" viewBox="0 0 128 128" version="1.1" xmlns="http://www.w3.org/2000/svg" xmlns:xlink="http://www.w3.org/1999/xlink" xml:space="preserve" xmlns:serif="http://www.serif.com/" style="fill-rule:evenodd;clip-rule:evenodd;stroke-linejoin:round;stroke-miterlimit:2;">
    <g transform="matrix(5.07433,0,0,5.07433,-182.34,-151.417)">
        <g>
            <g transform="matrix(1.27238,0,0,1.27238,-10.0025,-8.34257)">
                <path d="M37.097,48.839C36.847,48.589 36.722,48.292 36.722,47.948L36.722,41.187C36.722,41.069 36.763,40.97 36.845,40.888C36.927,40.806 37.027,40.765 37.144,40.765L44.749,40.765C44.867,40.765 44.968,40.808 45.054,40.894C45.132,40.972 45.171,41.069 45.171,41.187L45.171,48.792C45.171,48.909 45.13,49.009 45.048,49.091C44.966,49.173 44.867,49.214 44.749,49.214L37.988,49.214C37.644,49.214 37.347,49.089 37.097,48.839Z" style="fill:rgb(59,93,186);"/>
            </g>
            <g transform="matrix(1.27238,0,0,1.27238,-10.0025,-8.34257)">
                <path d="M47.281,49.214C47.163,49.214 47.064,49.173 46.982,49.091C46.9,49.009 46.859,48.909 46.859,48.792L46.859,41.187C46.859,41.069 46.9,40.97 46.982,40.888C47.064,40.806 47.163,40.765 47.281,40.765L54.886,40.765C55.003,40.765 55.103,40.806 55.185,40.888C55.267,40.97 55.308,41.069 55.308,41.187L55.308,47.948C55.308,48.292 55.185,48.589 54.939,48.839C54.693,49.089 54.394,49.214 54.042,49.214L47.281,49.214Z" style="fill:rgb(59,93,186);fill-rule:nonzero;"/>
            </g>
            <g transform="matrix(1.27238,0,0,1.27238,-10.0025,-8.34257)">
                <path d="M46.988,38.948C46.902,38.87 46.859,38.773 46.859,38.655L46.859,31.05C46.859,30.933 46.9,30.833 46.982,30.751C47.064,30.669 47.163,30.628 47.281,30.628L54.042,30.628C54.394,30.628 54.691,30.753 54.933,31.003C55.183,31.253 55.308,31.55 55.308,31.894L55.308,38.655C55.308,38.773 55.267,38.872 55.185,38.954C55.103,39.036 55.003,39.077 54.886,39.077L47.281,39.077C47.163,39.077 47.066,39.034 46.988,38.948Z" style="fill:rgb(59,93,186);"/>
            </g>
            <g transform="matrix(1.27238,0,0,1.27238,-10.0025,-8.34257)">
                <path d="M36.722,31.894L36.722,38.655C36.722,38.773 36.763,38.872 36.845,38.954C36.927,39.036 37.027,39.077 37.144,39.077L44.749,39.077C44.867,39.077 44.966,39.036 45.048,38.954C45.13,38.872 45.171,38.773 45.171,38.655L45.171,31.05C45.171,30.933 45.13,30.833 45.048,30.751C44.966,30.669 44.867,30.628 44.749,30.628L37.988,30.628C37.644,30.628 37.347,30.753 37.097,31.003C36.847,31.253 36.722,31.55 36.722,31.894Z" style="fill:rgb(59,93,186);fill-rule:nonzero;"/>
            </g>
        </g>
    </g>
</svg>
