<?xml version="1.0" encoding="UTF-8" standalone="no"?>
<!DOCTYPE svg PUBLIC "-//W3C//DTD SVG 1.1//EN" "http://www.w3.org/Graphics/SVG/1.1/DTD/svg11.dtd">
<svg width="100%" height="100%" viewBox="0 0 128 128" version="1.1" xmlns="http://www.w3.org/2000/svg" xmlns:xlink="http://www.w3.org/1999/xlink" xml:space="preserve" xmlns:serif="http://www.serif.com/" style="fill-rule:evenodd;clip-rule:evenodd;stroke-linejoin:round;stroke-miterlimit:2;">
    <g transform="matrix(5.07433,0,0,5.07433,-173.803,-197.124)">
        <path d="M46.348,43.35C46.7,43.694 47.122,43.866 47.614,43.866L56.895,43.866C57.395,43.866 57.819,44.042 58.167,44.393C58.514,44.745 58.688,45.167 58.688,45.659L58.688,48.507L35.04,48.507L35.04,42.272C35.04,41.78 35.215,41.358 35.567,41.007C35.919,40.655 36.34,40.479 36.833,40.479L42.387,40.479C43.114,40.479 43.735,40.737 44.251,41.253L46.348,43.35Z" style="fill:rgb(59,93,186);fill-rule:nonzero;"/>
        <path d="M56.895,62.44C57.395,62.44 57.819,62.266 58.167,61.919C58.514,61.571 58.688,61.151 58.688,60.659L58.688,48.178C58.688,47.686 58.514,47.266 58.167,46.919C57.819,46.571 57.395,46.397 56.895,46.397L36.833,46.397C36.34,46.397 35.919,46.571 35.567,46.919C35.215,47.266 35.04,47.686 35.04,48.178L35.04,60.659C35.04,61.151 35.215,61.571 35.567,61.919C35.919,62.266 36.34,62.44 36.833,62.44L56.895,62.44Z" style="fill:rgb(146,166,221);fill-rule:nonzero;"/>
    </g>
</svg>
