<?xml version="1.0" encoding="UTF-8" standalone="no"?>
<!DOCTYPE svg PUBLIC "-//W3C//DTD SVG 1.1//EN" "http://www.w3.org/Graphics/SVG/1.1/DTD/svg11.dtd">
<svg width="100%" height="100%" viewBox="0 0 128 128" version="1.1" xmlns="http://www.w3.org/2000/svg" xmlns:xlink="http://www.w3.org/1999/xlink" xml:space="preserve" xmlns:serif="http://www.serif.com/" style="fill-rule:evenodd;clip-rule:evenodd;stroke-linejoin:round;stroke-miterlimit:2;">
    <g transform="matrix(5.13253,0,0,5.13253,-288.917,-279.438)">
        <path d="M68.845,55.224C67.892,55.224 67.011,55.396 66.202,55.739C65.394,56.083 64.677,56.55 64.052,57.14C63.427,57.73 62.915,58.396 62.517,59.138C62.119,59.88 61.853,60.646 61.72,61.435C61.704,61.536 61.675,61.687 61.632,61.886C61.589,62.085 61.536,62.321 61.474,62.595C61.451,62.735 61.421,62.882 61.386,63.034C61.351,63.187 61.318,63.345 61.286,63.509C61.013,63.814 60.658,64.263 60.22,64.857C59.783,65.45 59.335,66.112 58.878,66.843C58.421,67.573 58.025,68.304 57.689,69.034C57.353,69.765 57.144,70.431 57.062,71.032C56.98,71.634 57.103,72.099 57.431,72.427C57.704,72.7 58.117,72.773 58.667,72.644C59.218,72.515 59.826,72.271 60.49,71.911C60.724,72.903 61.13,73.833 61.708,74.7L62.013,77.724C62.013,77.724 62.181,77.753 62.517,77.812C62.853,77.87 63.29,77.943 63.829,78.028C64.369,78.114 64.941,78.2 65.546,78.286C66.152,78.372 66.73,78.446 67.281,78.509C67.831,78.571 68.283,78.603 68.634,78.603C69.001,78.61 69.47,78.585 70.04,78.527C70.611,78.468 71.212,78.394 71.845,78.304C72.478,78.214 73.074,78.126 73.632,78.04C74.191,77.954 74.646,77.88 74.997,77.818C75.349,77.755 75.525,77.724 75.525,77.724L75.783,74.7C76.376,73.818 76.79,72.884 77.025,71.9C77.689,72.259 78.298,72.505 78.853,72.638C79.408,72.771 79.826,72.7 80.107,72.427C80.38,72.146 80.505,71.761 80.482,71.273C80.458,70.784 80.329,70.239 80.095,69.638C79.861,69.036 79.566,68.419 79.21,67.786C78.855,67.153 78.48,66.544 78.085,65.958C77.691,65.372 77.32,64.855 76.972,64.405C76.624,63.956 76.349,63.618 76.146,63.392C76.138,63.384 76.126,63.372 76.111,63.357C76.009,62.896 75.923,62.497 75.853,62.161C75.783,61.825 75.74,61.583 75.724,61.435C75.654,60.661 75.417,59.905 75.015,59.167C74.613,58.429 74.093,57.763 73.456,57.169C72.82,56.575 72.105,56.103 71.312,55.751C70.519,55.4 69.697,55.224 68.845,55.224Z" style="fill:rgb(59,93,186);fill-rule:nonzero;"/>
        <path d="M73.369,65.173C74.048,65.79 74.587,66.527 74.986,67.382C75.384,68.237 75.583,69.153 75.583,70.13C75.583,71.068 75.406,71.943 75.05,72.755C74.695,73.568 74.202,74.282 73.574,74.9C72.945,75.517 72.218,76.001 71.394,76.353C70.57,76.704 69.685,76.88 68.74,76.88C67.794,76.88 66.908,76.704 66.079,76.353C65.251,76.001 64.525,75.517 63.9,74.9C63.275,74.282 62.785,73.568 62.429,72.755C62.074,71.943 61.896,71.068 61.896,70.13C61.896,69.153 62.095,68.237 62.494,67.382C62.892,66.527 63.431,65.79 64.111,65.173C63.861,64.782 63.667,64.331 63.531,63.819C63.394,63.308 63.326,62.724 63.326,62.068C63.326,61.411 63.468,60.784 63.753,60.187C64.038,59.589 64.404,59.056 64.849,58.587C65.294,58.118 65.769,57.747 66.273,57.474C66.777,57.2 67.247,57.064 67.685,57.064C67.794,57.064 67.876,57.116 67.931,57.222C67.986,57.327 68.036,57.446 68.083,57.579C68.146,57.751 68.222,57.915 68.312,58.071C68.402,58.228 68.552,58.306 68.763,58.306C68.974,58.306 69.122,58.232 69.208,58.083C69.294,57.935 69.361,57.775 69.408,57.603C69.454,57.462 69.505,57.337 69.56,57.228C69.615,57.118 69.701,57.064 69.818,57.064C70.263,57.064 70.736,57.202 71.236,57.48C71.736,57.757 72.206,58.132 72.648,58.605C73.089,59.077 73.449,59.612 73.726,60.21C74.003,60.808 74.142,61.427 74.142,62.068C74.142,62.708 74.076,63.286 73.943,63.802C73.81,64.318 73.619,64.775 73.369,65.173Z" style="fill:rgb(251,238,198);fill-rule:nonzero;"/>
        <path d="M66.232,64.224C66.232,63.521 66.48,62.921 66.976,62.425C67.472,61.929 68.068,61.681 68.763,61.681C69.466,61.681 70.068,61.929 70.568,62.425C71.068,62.921 71.318,63.521 71.318,64.224L66.232,64.224Z" style="fill:rgb(146,166,221);fill-rule:nonzero;"/>
        <path d="M60.665,78.228C60.658,78.329 60.691,78.417 60.765,78.491C60.839,78.566 60.927,78.603 61.029,78.603L76.427,78.603C76.536,78.603 76.628,78.566 76.702,78.491C76.777,78.417 76.81,78.329 76.802,78.228C76.771,77.587 76.669,76.968 76.497,76.37C76.326,75.773 76.091,75.208 75.794,74.677C75.029,75.833 74.017,76.782 72.759,77.525C71.501,78.267 70.126,78.626 68.634,78.603C67.173,78.587 65.835,78.212 64.62,77.478C63.406,76.743 62.423,75.802 61.673,74.653C61.376,75.193 61.14,75.761 60.964,76.359C60.788,76.956 60.689,77.579 60.665,78.228Z" style="fill:rgb(146,166,221);fill-rule:nonzero;"/>
        <path d="M67.076,60.146L67.076,59.56C67.076,59.443 67.117,59.343 67.199,59.261C67.281,59.179 67.38,59.138 67.497,59.138C67.615,59.138 67.714,59.179 67.796,59.261C67.878,59.343 67.919,59.443 67.919,59.56L67.919,60.146C67.919,60.263 67.878,60.362 67.796,60.444C67.714,60.527 67.615,60.568 67.497,60.568C67.38,60.568 67.281,60.527 67.199,60.444C67.117,60.362 67.076,60.263 67.076,60.146Z" style="fill:rgb(59,93,186);fill-rule:nonzero;"/>
        <path d="M69.607,60.146L69.607,59.56C69.607,59.443 69.648,59.343 69.73,59.261C69.812,59.179 69.911,59.138 70.029,59.138C70.146,59.138 70.245,59.179 70.327,59.261C70.41,59.343 70.451,59.443 70.451,59.56L70.451,60.146C70.451,60.263 70.41,60.362 70.327,60.444C70.245,60.527 70.146,60.568 70.029,60.568C69.911,60.568 69.812,60.527 69.73,60.444C69.648,60.362 69.607,60.263 69.607,60.146Z" style="fill:rgb(59,93,186);fill-rule:nonzero;"/>
    </g>
</svg>
