<?xml version="1.0" encoding="UTF-8" standalone="no"?>
<!DOCTYPE svg PUBLIC "-//W3C//DTD SVG 1.1//EN" "http://www.w3.org/Graphics/SVG/1.1/DTD/svg11.dtd">
<svg width="100%" height="100%" viewBox="0 0 128 128" version="1.1" xmlns="http://www.w3.org/2000/svg" xmlns:xlink="http://www.w3.org/1999/xlink" xml:space="preserve" xmlns:serif="http://www.serif.com/" style="fill-rule:evenodd;clip-rule:evenodd;stroke-linejoin:round;stroke-miterlimit:2;">
    <g transform="matrix(4.83019,0,0,4.83019,-183.283,-95.5756)">
        <path d="M56.492,23.416L52.496,38.58C52.473,38.658 52.461,38.744 52.461,38.838L52.461,43.607C52.461,43.881 52.561,44.117 52.76,44.316C52.959,44.516 53.199,44.615 53.48,44.615L58.203,44.615C58.484,44.615 58.725,44.516 58.924,44.316C59.123,44.117 59.223,43.881 59.223,43.607L59.223,23.674C59.223,23.393 59.123,23.152 58.924,22.953C58.725,22.754 58.484,22.654 58.203,22.654L57.465,22.654C57.238,22.654 57.033,22.725 56.85,22.865C56.666,23.006 56.547,23.189 56.492,23.416Z" style="fill:rgb(59,93,186);fill-rule:nonzero;"/>
        <path d="M43.168,23.686L43.168,43.502C43.168,43.783 43.273,44.039 43.484,44.27C43.695,44.5 44.008,44.615 44.422,44.615L53.129,44.615C53.246,44.615 53.348,44.576 53.434,44.498L58.379,39.553L58.379,23.686C58.379,23.397 58.281,23.152 58.086,22.953C57.891,22.754 57.652,22.654 57.371,22.654L44.176,22.654C43.902,22.654 43.666,22.754 43.467,22.953C43.268,23.152 43.168,23.397 43.168,23.686Z" style="fill:rgb(146,166,221);fill-rule:nonzero;"/>
        <path d="M53.305,44.615L53.305,40.561C53.305,40.279 53.404,40.041 53.603,39.846C53.803,39.65 54.043,39.553 54.324,39.553L58.379,39.553L53.305,44.615Z" style="fill:rgb(251,238,198);fill-rule:nonzero;"/>
        <path d="M47,21.471C47.187,21.213 47.424,21.006 47.709,20.85C47.994,20.693 48.309,20.615 48.652,20.615C49.34,20.631 49.891,20.928 50.305,21.506C50.484,21.232 50.719,21.016 51.008,20.856C51.297,20.695 51.617,20.615 51.969,20.615C52.648,20.631 53.195,20.924 53.609,21.494C53.789,21.229 54.021,21.016 54.307,20.856C54.592,20.695 54.91,20.615 55.262,20.615C55.785,20.631 56.254,20.832 56.668,21.219C57.082,21.606 57.289,22.084 57.289,22.654L56.398,22.654C56.398,22.412 56.291,22.162 56.076,21.904C55.861,21.647 55.59,21.518 55.262,21.518C54.934,21.518 54.662,21.637 54.447,21.875C54.232,22.113 54.125,22.4 54.125,22.736C54.125,23.072 54.227,23.346 54.43,23.557C54.633,23.768 54.848,23.885 55.074,23.908C55.254,23.932 55.367,24.022 55.414,24.178C55.461,24.334 55.441,24.481 55.355,24.617C55.269,24.754 55.117,24.811 54.898,24.787C54.5,24.732 54.121,24.518 53.762,24.143C53.402,23.768 53.223,23.295 53.223,22.725L53.223,22.654L53.094,22.654C53.094,22.412 52.988,22.162 52.777,21.904C52.566,21.647 52.297,21.518 51.969,21.518C51.633,21.518 51.357,21.637 51.143,21.875C50.928,22.113 50.82,22.4 50.82,22.736C50.82,23.072 50.922,23.346 51.125,23.557C51.328,23.768 51.543,23.885 51.769,23.908C51.949,23.932 52.064,24.022 52.115,24.178C52.166,24.334 52.148,24.481 52.062,24.617C51.977,24.754 51.82,24.811 51.594,24.787C51.195,24.732 50.818,24.518 50.463,24.143C50.107,23.768 49.93,23.295 49.93,22.725L49.93,22.654L49.789,22.654C49.789,22.412 49.682,22.162 49.467,21.904C49.252,21.647 48.98,21.518 48.652,21.518C48.324,21.518 48.051,21.637 47.832,21.875C47.613,22.113 47.504,22.4 47.504,22.736C47.504,23.072 47.607,23.346 47.814,23.557C48.021,23.768 48.234,23.885 48.453,23.908C48.641,23.932 48.758,24.022 48.805,24.178C48.852,24.334 48.832,24.481 48.746,24.617C48.66,24.754 48.508,24.811 48.289,24.787C47.891,24.732 47.512,24.518 47.152,24.143C46.793,23.768 46.613,23.295 46.613,22.725L46.613,22.654L46.508,22.654C46.508,22.412 46.402,22.162 46.191,21.904C45.98,21.647 45.711,21.518 45.383,21.518C45.047,21.518 44.771,21.637 44.557,21.875C44.342,22.113 44.234,22.4 44.234,22.736C44.234,23.072 44.336,23.346 44.539,23.557C44.742,23.768 44.957,23.885 45.184,23.908C45.363,23.932 45.478,24.022 45.529,24.178C45.58,24.334 45.562,24.481 45.477,24.617C45.391,24.754 45.238,24.811 45.019,24.787C44.613,24.732 44.232,24.518 43.877,24.143C43.521,23.768 43.344,23.295 43.344,22.725C43.344,22.154 43.537,21.66 43.924,21.242C44.311,20.824 44.797,20.615 45.383,20.615C46.047,20.631 46.586,20.916 47,21.471Z" style="fill:rgb(59,93,186);fill-rule:nonzero;"/>
        <path d="M45.289,27.717L56.269,27.717C56.387,27.717 56.486,27.758 56.568,27.84C56.65,27.922 56.691,28.022 56.691,28.139C56.691,28.256 56.65,28.356 56.568,28.438C56.486,28.52 56.387,28.561 56.269,28.561L45.289,28.561C45.172,28.561 45.072,28.52 44.99,28.438C44.908,28.356 44.867,28.256 44.867,28.139C44.867,28.022 44.908,27.922 44.99,27.84C45.072,27.758 45.172,27.717 45.289,27.717Z" style="fill:rgb(251,238,198);fill-rule:nonzero;"/>
        <path d="M44.867,30.682C44.867,30.799 44.908,30.898 44.99,30.981C45.072,31.063 45.172,31.104 45.289,31.104L56.269,31.104C56.387,31.104 56.486,31.063 56.568,30.981C56.65,30.898 56.691,30.799 56.691,30.682C56.691,30.564 56.65,30.465 56.568,30.383C56.486,30.301 56.387,30.26 56.269,30.26L45.289,30.26C45.172,30.26 45.072,30.301 44.99,30.383C44.908,30.465 44.867,30.564 44.867,30.682Z" style="fill:rgb(251,238,198);fill-rule:nonzero;"/>
        <path d="M45.289,32.791L56.269,32.791C56.387,32.791 56.486,32.832 56.568,32.914C56.65,32.996 56.691,33.096 56.691,33.213C56.691,33.33 56.65,33.43 56.568,33.512C56.486,33.594 56.387,33.635 56.269,33.635L45.289,33.635C45.172,33.635 45.072,33.594 44.99,33.512C44.908,33.43 44.867,33.33 44.867,33.213C44.867,33.096 44.908,32.996 44.99,32.914C45.072,32.832 45.172,32.791 45.289,32.791Z" style="fill:rgb(251,238,198);fill-rule:nonzero;"/>
        <path d="M45.289,35.322L51.195,35.322C51.312,35.322 51.414,35.363 51.5,35.445C51.586,35.527 51.629,35.627 51.629,35.744C51.629,35.861 51.586,35.961 51.5,36.043C51.414,36.125 51.312,36.166 51.195,36.166L45.289,36.166C45.172,36.166 45.072,36.125 44.99,36.043C44.908,35.961 44.867,35.861 44.867,35.744C44.867,35.627 44.908,35.527 44.99,35.445C45.072,35.363 45.172,35.322 45.289,35.322Z" style="fill:rgb(251,238,198);fill-rule:nonzero;"/>
    </g>
</svg>
