<?xml version="1.0" encoding="UTF-8" standalone="no"?>
<!DOCTYPE svg PUBLIC "-//W3C//DTD SVG 1.1//EN" "http://www.w3.org/Graphics/SVG/1.1/DTD/svg11.dtd">
<svg width="100%" height="100%" viewBox="0 0 128 128" version="1.1" xmlns="http://www.w3.org/2000/svg" xmlns:xlink="http://www.w3.org/1999/xlink" xml:space="preserve" xmlns:serif="http://www.serif.com/" style="fill-rule:evenodd;clip-rule:evenodd;stroke-linejoin:round;stroke-miterlimit:2;">
    <g transform="matrix(5.07433,0,0,5.07433,-354.702,-322.056)">
        <path d="M70.689,67.631L70.689,84.529C70.689,85.147 70.842,85.711 71.147,86.223C71.451,86.734 71.859,87.143 72.371,87.447C72.883,87.752 73.447,87.904 74.064,87.904L90.963,87.904C91.588,87.904 92.154,87.752 92.662,87.447C93.17,87.143 93.576,86.734 93.881,86.223C94.186,85.711 94.338,85.147 94.338,84.529L94.338,67.631C94.338,67.014 94.186,66.449 93.881,65.938C93.576,65.426 93.17,65.018 92.662,64.713C92.154,64.408 91.588,64.256 90.963,64.256L74.064,64.256C73.447,64.256 72.883,64.408 72.371,64.713C71.859,65.018 71.451,65.426 71.147,65.938C70.842,66.449 70.689,67.014 70.689,67.631Z" style="fill:rgb(59,93,186);fill-rule:nonzero;"/>
        <path d="M80.182,81.998C80.533,81.998 80.834,81.873 81.084,81.623L90.588,72.283C90.838,72.041 90.963,71.75 90.963,71.41C90.963,71.07 90.838,70.779 90.588,70.537C90.346,70.287 90.049,70.162 89.697,70.162C89.346,70.162 89.049,70.287 88.807,70.537L80.182,78.998L76.232,75.108C75.982,74.865 75.684,74.744 75.336,74.744C74.988,74.744 74.689,74.865 74.439,75.108C74.189,75.35 74.064,75.643 74.064,75.986C74.064,76.33 74.189,76.623 74.439,76.865L79.291,81.623C79.541,81.873 79.838,81.998 80.182,81.998Z" style="fill:rgb(146,166,221);fill-rule:nonzero;"/>
    </g>
</svg>
