<?xml version="1.0" encoding="UTF-8" standalone="no"?>
<!DOCTYPE svg PUBLIC "-//W3C//DTD SVG 1.1//EN" "http://www.w3.org/Graphics/SVG/1.1/DTD/svg11.dtd">
<svg width="100%" height="100%" viewBox="0 0 128 128" version="1.1" xmlns="http://www.w3.org/2000/svg" xmlns:xlink="http://www.w3.org/1999/xlink" xml:space="preserve" xmlns:serif="http://www.serif.com/" style="fill-rule:evenodd;clip-rule:evenodd;stroke-linejoin:round;stroke-miterlimit:2;">
    <g transform="matrix(5.06984,0,0,5.06984,-319.875,-216.766)">
        <path d="M70.872,43.545C71.794,43.545 72.633,43.77 73.391,44.219C74.149,44.668 74.753,45.272 75.202,46.029C75.651,46.787 75.872,47.627 75.864,48.549L70.778,48.549C69.856,48.549 69.016,48.322 68.258,47.869C67.501,47.416 66.897,46.813 66.448,46.059C65.999,45.305 65.774,44.467 65.774,43.545L70.872,43.545Z" style="fill:rgb(146,166,221);fill-rule:nonzero;"/>
        <path d="M77.493,48.092C78.383,47.717 79.286,47.535 80.2,47.547C81.114,47.559 81.987,47.738 82.819,48.086C83.651,48.434 84.391,48.932 85.04,49.58C85.688,50.229 86.188,51.002 86.54,51.901C87.204,53.565 87.536,55.293 87.536,57.086C87.536,58.879 87.204,60.611 86.54,62.283C86.18,63.205 85.672,64.016 85.016,64.715C84.36,65.414 83.61,65.975 82.766,66.397C81.922,66.819 81.024,67.078 80.071,67.176C79.118,67.274 78.161,67.186 77.2,66.912C76.208,66.639 75.219,66.639 74.235,66.912C72.954,67.272 71.69,67.307 70.444,67.018C69.198,66.729 68.083,66.176 67.098,65.36C66.114,64.543 65.376,63.518 64.883,62.283C64.227,60.611 63.899,58.879 63.899,57.086C63.899,55.293 64.227,53.565 64.883,51.901C65.243,51.002 65.747,50.229 66.395,49.58C67.044,48.932 67.784,48.434 68.616,48.086C69.448,47.738 70.323,47.559 71.241,47.547C72.159,47.535 73.059,47.717 73.942,48.092C75.122,48.592 76.305,48.592 77.493,48.092Z" style="fill:rgb(59,93,186);fill-rule:nonzero;"/>
    </g>
</svg>
