<?xml version="1.0" encoding="UTF-8" standalone="no"?>
<!DOCTYPE svg PUBLIC "-//W3C//DTD SVG 1.1//EN" "http://www.w3.org/Graphics/SVG/1.1/DTD/svg11.dtd">
<svg width="100%" height="100%" viewBox="0 0 128 128" version="1.1" xmlns="http://www.w3.org/2000/svg" xmlns:xlink="http://www.w3.org/1999/xlink" xml:space="preserve" xmlns:serif="http://www.serif.com/" style="fill-rule:evenodd;clip-rule:evenodd;stroke-linejoin:round;stroke-miterlimit:2;">
    <g transform="matrix(4.91358,0,0,4.91358,-310.372,-194.074)">
        <path d="M74.146,46.811L70.56,50.397L83.228,63.065C83.72,63.557 84.318,63.803 85.021,63.803C85.724,63.803 86.322,63.557 86.814,63.065C87.306,62.565 87.553,61.965 87.553,61.266C87.553,60.567 87.306,59.971 86.814,59.479L74.146,46.811Z" style="fill:rgb(251,238,198);fill-rule:nonzero;"/>
        <path d="M72.717,41.198C72.81,41.096 72.924,41.053 73.056,41.069L75.752,41.362C75.931,41.378 76.051,41.469 76.109,41.637C76.168,41.805 76.135,41.952 76.01,42.077L73.713,44.374C73.713,44.374 73.668,44.464 73.578,44.643C73.488,44.823 73.545,45.014 73.748,45.217L75.4,46.87C75.478,46.948 75.517,47.046 75.517,47.163C75.517,47.28 75.478,47.381 75.4,47.467L71.217,51.651C71.131,51.729 71.031,51.768 70.918,51.768C70.804,51.768 70.705,51.729 70.619,51.651L68.123,50.292L66.74,47.76C66.654,47.682 66.611,47.585 66.611,47.467C66.611,47.35 66.654,47.249 66.74,47.163L72.717,41.198Z" style="fill:rgb(59,93,186);fill-rule:nonzero;"/>
        <path d="M85.291,47.01C85.197,47.112 85.082,47.163 84.945,47.163C84.808,47.163 84.689,47.112 84.588,47.01L83.228,45.651C83.135,45.557 83.088,45.442 83.088,45.305C83.088,45.169 83.135,45.053 83.228,44.96L85.385,42.803C85.517,42.671 85.558,42.508 85.508,42.317C85.457,42.126 85.338,42.006 85.15,41.96C84.463,41.796 83.763,41.803 83.053,41.983C82.342,42.163 81.713,42.518 81.166,43.049C80.564,43.628 80.172,44.309 79.988,45.094C79.804,45.88 79.83,46.647 80.064,47.397L71.861,55.647C71.119,55.405 70.355,55.37 69.57,55.542C68.785,55.714 68.095,56.096 67.502,56.69C66.955,57.237 66.588,57.872 66.4,58.594C66.213,59.317 66.205,60.026 66.377,60.721C66.416,60.917 66.531,61.04 66.722,61.09C66.914,61.141 67.076,61.096 67.209,60.956L69.365,58.811C69.459,58.71 69.574,58.659 69.711,58.659C69.847,58.659 69.967,58.71 70.068,58.811L71.428,60.171C71.521,60.264 71.568,60.38 71.568,60.516C71.568,60.653 71.521,60.772 71.428,60.874L69.271,63.018C69.131,63.159 69.088,63.323 69.142,63.51C69.197,63.698 69.318,63.815 69.506,63.862C70.193,64.026 70.892,64.018 71.603,63.839C72.314,63.659 72.943,63.303 73.49,62.772C74.084,62.202 74.474,61.528 74.662,60.751C74.849,59.973 74.83,59.214 74.603,58.471L82.83,50.186C83.564,50.421 84.322,50.45 85.103,50.274C85.885,50.098 86.568,49.717 87.154,49.131C87.701,48.585 88.068,47.952 88.256,47.233C88.443,46.514 88.451,45.803 88.279,45.1C88.232,44.913 88.115,44.792 87.928,44.737C87.74,44.682 87.58,44.725 87.447,44.866L85.291,47.01Z" style="fill:rgb(59,93,186);fill-rule:nonzero;"/>
        <path d="M64.056,48.85L69.435,54.229C69.529,54.331 69.627,54.331 69.728,54.229L70.267,53.69C70.603,53.354 70.771,52.954 70.771,52.489C70.771,52.024 70.603,51.628 70.267,51.299L66.986,48.006C66.658,47.678 66.26,47.514 65.791,47.514C65.322,47.514 64.924,47.678 64.595,48.006L64.056,48.557C63.955,48.651 63.955,48.749 64.056,48.85Z" style="fill:rgb(146,166,221);fill-rule:nonzero;"/>
    </g>
</svg>
